<svg id="Layer_1" data-name="Layer 1" xmlns="http://www.w3.org/2000/svg" viewBox="0 0 899.16 185.63"><defs><style>.cls-1{fill:#faffff;}</style></defs><path class="cls-1" d="M277,87.76c.62-1.46,1.24-2.91,1.85-4.38,6.54-15.87,18.41-26.54,34.22-33.46,18-7.85,44.91.71,43.53,30.05-.6,12.8-2.58,25.55-4.15,38.29-2.48,20.13-5.2,34.24-7.71,54.37-1.11,8.82-4.76,12.34-13.5,12.42-5.25,0-10.49.07-15.74,0-8-.11-11-3.67-10-11.56,3.33-26,6.65-46,10-72,.54-4.21.85-8.44-4-10.29s-8.57.41-11.46,4.19l-.39.59a259.11,259.11,0,0,0-30.06,63.66q-2.5,8-5,16c-1.91,6.06-5.4,9.19-11.66,9.39-6.42.21-12.86.22-19.28,0-7-.24-10-4.07-9.12-11q7.92-62.15,15.8-124.29c1.39-11,4.54-13.83,15.83-13.84h13.7C277.64,36,280.7,39.18,280,47c-1,10.78-2.37,27.51-3.57,38.27-.08.75-.08,1.51-.11,2.26Z" transform="translate(0 0)"/><path class="cls-1" d="M52.68,81.73c.58-1.48,1.14-3,1.76-4.43,6.75-16,17.67-27.82,33.84-34.6,17.4-7.29,44.69,1.84,43.86,29.88-.38,13.13-2.45,26.23-4,39.32-2.48,20.48-5.2,40.93-7.81,61.4-1,8.11-4.87,11.63-13.06,11.75-5.42.07-10.84.08-16.25,0-7.77-.12-10.71-3.55-9.74-11.26q4.86-39,9.79-78c.54-4.2.93-8.26-3.72-10.48-3.79-1.82-8.47-.08-11.87,4.37A129.89,129.89,0,0,0,55.3,128.14C50,144,45.1,160,40,175.92c-1.82,5.76-5.35,8.83-11.39,9.06-6.43.24-12.87.22-19.29,0-7-.23-10.08-3.91-9.19-10.91q7.92-62.92,16-125.84c1.22-9.47,4.8-12.35,14.53-12.38,5.07,0,10.15-.07,15.23,0,7.21.13,10.38,3.69,9.63,11.07-1,10.15-2.29,20.15-3.43,30.27-.16,1.43-.16,2.87-.24,4.3Z" transform="translate(0 0)"/><path class="cls-1" d="M420.77,128.49c-1.36,16.23,9.29,27.62,25.83,26.93,8.43-.35,16.93-2.58,25.06-4.93,8.51-2.45,11.59-1.92,15.76,5.15,7.14,12.1,6.45,14.16-6.85,20.55A96.43,96.43,0,0,1,429,185.12c-21.95-2-39.41-15.14-44.48-35.6C377,119.19,383.21,91,405.91,67.36c17.19-17.91,39.7-23.6,64.95-19.51C490,51,503.28,64.14,507,82.65c2.49,12.32,1.5,24.57-1.28,36.72-1.48,6.46-5.5,9.08-13.22,9.1q-33,.08-66,0Zm3.39-25.5H461.1c11.89,0,12.37-.55,10.11-11.59-2.62-12.77-11.3-17.93-25-14.85C435.21,79,425.21,90.78,424.16,103Z" transform="translate(0 0)"/><path class="cls-1" d="M665,125.77c-.54,20.48,13.6,31.3,34.88,27.31A130.15,130.15,0,0,0,717.3,148c7-2.34,10.62-1.18,14.21,5.06,7.55,13.08,6.83,15.56-7.12,22.17-17,8-34.91,11.22-53.68,8.38-22.7-3.44-37.25-16.53-42-37.38-6.89-29.95-.65-57.79,20.08-82A61.91,61.91,0,0,1,672,47.53c1.4-.59,4.2-.4,5.12.54,11.08,11.2,30.94,11.4,44.76.34,3-2.42,5.12-2.45,8.32-.54,15.58,9.28,21.62,23.54,22.39,40,.41,8.91-.79,18-2.1,26.84-1.25,8.41-5.2,11-14.29,11H670.76Zm3.75-26.3c15,0,30,.06,45-.13.86,0,2.45-2.08,2.41-3.16a54,54,0,0,0-1.41-11.88c-2.34-8.86-8.06-12.8-17.61-12.81-14.44,0-27.61,12.78-28.4,28Z" transform="translate(0 0)"/><path class="cls-1" d="M546,74.59c-3.68,0-6.86.09-10,0-6.28-.25-9-3.14-8.77-9.25.42-13,.36-16.52,13.47-18.43,8.95,0,10.55-5.83,11.59-10.7s2.64-12.78,4.17-17.62c2-6.5,5.42-9.06,12.27-9.3,4.39-.16,8.8-.16,13.2,0,6.83.24,9.47,3.34,8.72,10.06-.68,6-1.46,20.07-2.33,27.18h14.18c3.55,0,7.13-.15,10.65.2,5.32.52,7.87,3.61,7.45,8.91A111.18,111.18,0,0,1,619,67.7c-1.13,5.8-4.64,8.72-10.65,8.85-6.77.15-13.54.12-20.31,0-2.44,0-3.59.58-3.92,3.28-2.85,23-6,38-8.7,61-1,8.79,3,12.28,11.77,11,3.83-.53,7.53-1.89,11.3-2.8,6.7-1.61,10,.66,10.88,7.49,0,.33.06.67.09,1,1.68,17.29-.63,20.57-17.48,24.77-10.16,2.53-20.41,3.37-30.61.54-18-5-27.06-20.86-24.3-41.84,2.91-22.14,5.78-41.29,8.6-63.44A19,19,0,0,0,546,74.59Z" transform="translate(0 0)"/><path class="cls-1" d="M170.45,185.07h-7.1c-8.51-.08-11.44-3.22-10.41-11.55,1.68-13.58,3.51-27.14,5.26-40.71,3.27-25.47,6.52-47.94,9.76-73.42,1.21-9.69,4.39-12.77,14-12.84,4.74,0,9.47-.07,14.2,0,8.33.13,11.19,3.17,10.17,11.26-3.43,27.31-7,51.62-10.49,78.92-1.49,11.56-3.08,23.11-4.46,34.69C190,182.34,187.1,185.07,176,185.07Z" transform="translate(0 0)"/><path class="cls-1" d="M195.28.15c3.54,0,7.09-.17,10.62,0,5,.31,7.93,3.2,7.58,8.17a155.74,155.74,0,0,1-2.34,18c-1,5.12-4.75,8.08-10.13,8.24-6.74.2-13.5.22-20.24,0-5.77-.19-8.53-3.48-8-9.28.49-5.2,1.11-10.41,2-15.56C175.9,3,179.33.21,186.2,0c3-.08,6.07,0,9.11,0Z" transform="translate(0 0)"/><path class="cls-1" d="M811.49,125.77c-.54,20.48,13.6,31.3,34.88,27.31a130.15,130.15,0,0,0,17.4-5.06c7-2.34,10.62-1.18,14.21,5.06,7.55,13.08,6.83,15.56-7.12,22.17-17,8-34.91,11.22-53.68,8.38-22.7-3.44-37.25-16.53-42-37.38-6.89-29.95-.65-57.79,20.08-82a61.75,61.75,0,0,1,23.23-16.76c1.4-.59,4.2-.4,5.12.54,11.08,11.2,30.94,11.4,44.76.34,3-2.42,5.12-2.45,8.32-.54,15.58,9.28,21.62,23.54,22.39,40,.41,8.91-.79,18-2.1,26.84-1.25,8.41-5.2,11-14.29,11H817.2Zm3.75-26.3c15,0,30,.06,45-.13.86,0,2.45-2.08,2.41-3.16a54.64,54.64,0,0,0-1.41-11.88c-2.34-8.86-8.06-12.8-17.61-12.81-14.44,0-27.61,12.78-28.4,28Z" transform="translate(0 0)"/></svg>