<svg id="Layer_1" data-name="Layer 1" xmlns="http://www.w3.org/2000/svg" viewBox="0 0 509.92 359.56"><defs><style>.cls-1{fill:#fff;}</style></defs><path class="cls-1" d="M114.82,142H0V0H197.07c2.91,0,5.15-.2,6.59,3.7C221.07,53.81,292.89,50.83,307.52.28h202.4V141.85H395.42v217.7H114.82ZM150,324.59c53.22.86,106.47.14,159.71.27,28.87-.08,50.7-22,50.91-50.87q.13-99.77,0-199.54c0-17.84-10.21-32.08-26.26-37.65-3.57-1.24-5.69-.94-8.21,2.32-36.84,47.8-105.44,47.77-142.52,0-2.34-3-4.36-3.44-7.82-2.22-16,5.62-26,19.86-26.06,37.81q-.12,53.3,0,106.6c0,22.46,15.29,37.54,37.87,37.58,32.71.06,65.71,0,98.38,0v31.83H150ZM34.88,35.08v71.68h80c1-24.47-3.7-49.35,11-71.68Zm349.49.06c14.93,22.67,10.08,47.63,11.29,71.76h79.53V35.14Z" transform="translate(0 0.01)"/><path class="cls-1" d="M218.71,147.19V107.47h72.8v39.72Z" transform="translate(0 0.01)"/></svg>