<svg id="Layer_1" data-name="Layer 1" xmlns="http://www.w3.org/2000/svg" viewBox="0 0 509.92 359.55"><defs><style>.cls-1{fill:#3cc;}</style></defs><path class="cls-1" d="M387.11,782H272.29V640H469.36c2.91,0,5.15-.2,6.59,3.7,17.41,50.12,89.23,47.14,103.86-3.41h202.4V781.86H667.71v217.7H387.11ZM422.29,964.6c53.22.86,106.47.14,159.71.27,28.87-.08,50.7-22,50.91-50.87q.14-99.76,0-199.54c0-17.84-10.21-32.08-26.26-37.65-3.57-1.24-5.69-.94-8.21,2.32-36.84,47.8-105.44,47.77-142.52,0-2.34-3-4.36-3.44-7.82-2.22-16,5.62-26,19.86-26.06,37.81q-.12,53.29,0,106.6c0,22.46,15.29,37.54,37.87,37.58,32.71.06,65.71,0,98.38,0v31.83h-136ZM307.17,675.09v71.68h80c1-24.47-3.7-49.35,11-71.68Zm349.49.06c14.93,22.67,10.08,47.63,11.29,71.76h79.53V675.15Z" transform="translate(-272.29 -640.01)"/><path class="cls-1" d="M491,787.2V747.48H563.8V787.2Z" transform="translate(-272.29 -640.01)"/></svg>