<svg xmlns="http://www.w3.org/2000/svg" xmlns:xlink="http://www.w3.org/1999/xlink" xmlns:xodm="http://www.corel.com/coreldraw/odm/2003" xml:space="preserve" version="1.1" style="shape-rendering:geometricPrecision;text-rendering:geometricPrecision;image-rendering:optimizeQuality;" viewBox="0 0 846.66 1058.325" x="0px" y="0px" fill-rule="evenodd" clip-rule="evenodd"><defs><style type="text/css">
   
    .fil0 {fill:black;fill-rule:nonzero}
   
  </style></defs><g><path class="fil0" d="M522.2 604.99c9.35,0 16.94,7.59 16.94,16.94 0,9.35 -7.59,16.94 -16.94,16.94l-431.62 0c-19.89,0 -37.98,-8.14 -51.08,-21.24l-0.94 -1.02c-12.54,-13.03 -20.3,-30.71 -20.3,-50.06l0 -335.35c0,-19.89 8.14,-37.98 21.24,-51.08 13.1,-13.1 31.19,-21.24 51.08,-21.24l589.7 0c19.84,0 37.93,8.16 51.05,21.27 13.13,13.07 21.27,31.16 21.27,51.05l0 150.39c0,9.35 -7.59,16.94 -16.94,16.94 -9.35,0 -16.94,-7.59 -16.94,-16.94l0 -150.39c0,-10.56 -4.33,-20.17 -11.3,-27.14 -6.92,-6.99 -16.54,-11.3 -27.14,-11.3l-589.7 0c-10.56,0 -20.17,4.33 -27.14,11.3 -6.97,6.97 -11.3,16.58 -11.3,27.14l0 335.35c0,10.25 4.03,19.59 10.57,26.45l0.73 0.69c6.97,6.97 16.58,11.3 27.14,11.3l431.62 0zm272.3 -59.43l0.01 -0.44 0.01 -0.43c-0.24,-29.59 -12.32,-56.35 -31.72,-75.75 -19.59,-19.59 -46.69,-31.72 -76.62,-31.72 -29.56,0 -56.35,11.8 -75.89,30.93l-0.74 0.79c-19.59,19.59 -31.72,46.69 -31.72,76.62 0,29.93 12.13,57.04 31.72,76.63 19.57,19.6 46.68,31.72 76.63,31.72 13.1,0 25.59,-2.28 37.04,-6.44 11.94,-4.34 22.97,-10.78 32.59,-18.84 7.16,-5.99 17.83,-5.04 23.82,2.12 5.99,7.16 5.04,17.83 -2.12,23.82 -12.54,10.51 -26.99,18.93 -42.77,24.66 -15.23,5.53 -31.61,8.56 -48.56,8.56 -39.21,0 -74.76,-15.92 -100.51,-41.66 -25.79,-25.73 -41.72,-61.31 -41.72,-100.57 0,-39.26 15.93,-74.83 41.66,-100.56l0.96 -0.89c25.68,-25.22 60.86,-40.77 99.61,-40.77 39.26,0 74.83,15.93 100.56,41.66 25.73,25.73 41.66,61.3 41.66,100.56l-0.02 0.7 0 0.17 -0.01 0.12c-0.27,14.45 -6.27,27.57 -15.81,37.12 -9.76,9.82 -23.27,15.88 -38.16,15.88 -13.03,0 -25,-4.64 -34.33,-12.34 -1.78,2.29 -3.68,4.47 -5.73,6.52 -12.32,12.32 -29.36,19.96 -48.16,19.96 -18.8,0 -35.84,-7.64 -48.16,-19.96 -12.32,-12.32 -19.96,-29.37 -19.96,-48.17 0,-18.79 7.64,-35.84 19.96,-48.16 12.32,-12.32 29.37,-19.96 48.16,-19.96 18.8,0 35.84,7.64 48.16,19.96 12.32,12.32 19.96,29.37 19.96,48.16 0,5.28 2.01,10.07 5.27,13.65l0.61 0.58c3.62,3.62 8.66,5.88 14.22,5.88 5.56,0 10.6,-2.26 14.22,-5.88 3.63,-3.6 5.88,-8.65 5.88,-14.23zm-84.1 -24.22c-6.18,-6.18 -14.75,-10.02 -24.22,-10.02 -9.46,0 -18.04,3.84 -24.22,10.02 -6.18,6.18 -10.02,14.76 -10.02,24.22 0,9.47 3.84,18.05 10.02,24.23 6.18,6.18 14.75,10.02 24.22,10.02 9.47,0 18.04,-3.84 24.22,-10.02 6.03,-6.03 9.85,-14.36 10.02,-23.56l0 -0.23 0 -0.44c0,-9.46 -3.84,-18.04 -10.02,-24.22zm-616.69 -260.94c-7.34,-5.77 -8.62,-16.41 -2.85,-23.75 5.77,-7.34 16.41,-8.62 23.75,-2.85l270.81 212.81 270.82 -212.82c7.34,-5.77 17.98,-4.49 23.75,2.85 5.77,7.34 4.49,17.98 -2.85,23.75l-281.07 220.88c-6,4.86 -14.78,5.12 -21.1,0.15l-281.26 -221.02z"/></g><text x="0" y="861.66" fill="#000000" font-size="5px" font-weight="bold" font-family="'Helvetica Neue', Helvetica, Arial-Unicode, Arial, Sans-serif">Created by Tsundere Project</text><text x="0" y="866.66" fill="#000000" font-size="5px" font-weight="bold" font-family="'Helvetica Neue', Helvetica, Arial-Unicode, Arial, Sans-serif">from the Noun Project</text></svg>